<?xml version="1.0" encoding="utf-8"?>
<!-- Generator: Adobe Illustrator 21.1.0, SVG Export Plug-In . SVG Version: 6.00 Build 0)  -->
<svg version="1.1" id="Layer_1" xmlns="http://www.w3.org/2000/svg" xmlns:xlink="http://www.w3.org/1999/xlink" x="0px" y="0px"
	 viewBox="0 0 438.2 109.8" style="enable-background:new 0 0 438.2 109.8;" xml:space="preserve">
<style type="text/css">
	.st0{fill:#1E3845;}
	.st1{fill:#DC5827;}
	.st2{fill:#EFB154;}
	.st3{fill:#DD6C25;}
	.st4{fill:#E28F38;}
	.st5{fill:#E09F3A;}
</style>
<polygon class="st0" points="152.9,16.2 146.6,16.2 146.6,12 164,12 164,16.2 157.6,16.2 157.6,33 152.9,33 "/>
<path class="st0" d="M166.9,27c0.2,1.4,1.6,2.6,4,2.6c1.2,0,2.8-0.3,3.8-1.2l2.4,2.7c-1.6,1.6-4.1,2.2-6.4,2.2
	c-5.4,0-8.3-3.1-8.3-7.9c0-4.5,3-7.7,7.9-7.7c5,0,8.3,3.2,7.4,9.2H166.9z M173.9,23.9c-0.1-1.6-1.7-2.4-3.5-2.4
	c-1.7,0-3.1,0.9-3.5,2.4H173.9z"/>
<rect x="180.8" y="12" class="st0" width="4.3" height="21"/>
<path class="st0" d="M192.3,27c0.2,1.4,1.6,2.6,4,2.6c1.2,0,2.8-0.3,3.8-1.2l2.4,2.7c-1.6,1.6-4.1,2.2-6.4,2.2
	c-5.4,0-8.3-3.1-8.3-7.9c0-4.5,3-7.7,7.9-7.7c5,0,8.3,3.2,7.4,9.2H192.3z M199.3,23.9c-0.1-1.6-1.7-2.4-3.5-2.4
	c-1.7,0-3.1,0.9-3.5,2.4H199.3z"/>
<path class="st0" d="M219.1,31.1c-1.8,1.7-3.9,2.3-5.8,2.3c-4.3,0-8.1-2.4-8.1-7.7c0-5,3.8-7.8,8.1-7.8c2.2,0,3.9,0.5,5.4,2
	l-2.4,2.7c-0.9-0.7-1.9-0.9-2.8-0.9c-2.2,0-3.9,1.4-3.9,3.9c0,2.4,1.8,3.7,3.8,3.7c1,0,2.3-0.4,3-1.1L219.1,31.1z"/>
<path class="st0" d="M220,25.6c0-4.5,3.2-7.8,8.1-7.8c4.9,0,8.1,3.3,8.1,7.8c0,4.5-3.1,7.7-8.1,7.7C223.1,33.3,220,30.1,220,25.6
	 M231.9,25.6c0-1.9-1.1-3.9-3.8-3.9c-2.6,0-3.7,2-3.7,3.9c0,1.9,1.1,3.9,3.7,3.9C230.8,29.5,231.9,27.6,231.9,25.6"/>
<path class="st0" d="M248,33v-7.9c0-1.9-0.8-3.2-2.6-3.2c-1.7,0-2.7,1.6-2.7,3.3V33h-4.3V18.2h3.8l0.3,1.7c0.9-1.6,2.6-2,3.9-2
	c1.6,0,3.4,0.6,4.3,2.8c1.3-2,2.7-2.8,4.9-2.8c3.1,0,5.9,1.6,5.9,7.1V33h-4.4v-8c0-1.9-0.5-3.1-2.2-3.1c-1.7,0-2.7,1.5-2.7,3.1V33
	H248z"/>
<path class="st0" d="M274,33v-7.9c0-1.9-0.8-3.2-2.6-3.2c-1.7,0-2.7,1.6-2.7,3.3V33h-4.3V18.2h3.8l0.3,1.7c0.9-1.6,2.6-2,3.9-2
	c1.6,0,3.4,0.6,4.3,2.8c1.3-2,2.7-2.8,4.9-2.8c3.1,0,5.9,1.6,5.9,7.1V33h-4.4v-8c0-1.9-0.5-3.1-2.2-3.1c-1.7,0-2.7,1.5-2.7,3.1V33
	H274z"/>
<path class="st0" d="M294.5,18.2V26c0,2.3,1,3.4,3.1,3.4c2,0,3.4-1.7,3.4-3.6v-7.6h4.3V33h-3.9l-0.1-1.9c-1.3,1.8-3,2.3-4.8,2.2
	c-3.3,0-6.2-1.5-6.2-7.3v-7.9H294.5z"/>
<path class="st0" d="M319.6,33v-7.8c0-2.3-1-3.5-3.1-3.5c-2,0-3.4,1.7-3.4,3.6V33h-4.3V18.2h3.9l0.2,1.9c1.3-1.7,3-2.3,4.8-2.2
	c3.3,0,6.2,1.6,6.2,7.3V33H319.6z"/>
<path class="st0" d="M332,14.3c0,3.2-4.9,3.2-4.9,0C327.1,11,332,11,332,14.3 M327.4,33h4.3V18.2h-4.3V33z"/>
<path class="st0" d="M348.4,31.1c-1.8,1.7-3.9,2.3-5.8,2.3c-4.3,0-8.1-2.4-8.1-7.7c0-5,3.8-7.8,8.1-7.8c2.2,0,3.9,0.5,5.4,2
	l-2.4,2.7c-0.9-0.7-1.9-0.9-2.8-0.9c-2.2,0-3.9,1.4-3.9,3.9c0,2.4,1.8,3.7,3.8,3.7c1,0,2.3-0.4,3-1.1L348.4,31.1z"/>
<path class="st0" d="M361.6,18.2h4.1V33h-3.9l-0.2-1.9c-1,1.6-3.1,2.2-4.6,2.2c-4.4,0-7.6-2.9-7.6-7.7c0-4.9,3.4-7.8,7.8-7.7
	c1.9,0,3.6,0.7,4.4,2L361.6,18.2z M353.6,25.6c0,2.5,1.7,3.9,3.9,3.9c2.4,0,3.9-1.9,3.9-3.8c0-2.1-1.4-4.1-3.9-4.1
	C355.4,21.7,353.6,23.1,353.6,25.6"/>
<path class="st0" d="M374.6,14.1v4.1h3.8v3.6h-3.8v5.6c0,1.6,0.9,2,1.7,2c0.5,0,1.3-0.1,1.8-0.4l1,3.6c-1.1,0.4-2,0.6-3.1,0.7
	c-3.2,0.2-5.6-1.3-5.6-5.9v-5.6h-2.6v-3.6h2.6v-3.7L374.6,14.1z"/>
<path class="st0" d="M385.9,14.3c0,3.2-4.9,3.2-4.9,0C381,11,385.9,11,385.9,14.3 M381.3,33h4.3V18.2h-4.3V33z"/>
<path class="st0" d="M388.4,25.6c0-4.5,3.2-7.8,8.1-7.8c4.9,0,8.1,3.3,8.1,7.8c0,4.5-3.1,7.7-8.1,7.7
	C391.5,33.3,388.4,30.1,388.4,25.6 M400.3,25.6c0-1.9-1.1-3.9-3.8-3.9c-2.6,0-3.7,2-3.7,3.9c0,1.9,1.1,3.9,3.7,3.9
	C399.1,29.5,400.3,27.6,400.3,25.6"/>
<path class="st0" d="M418.1,33v-7.8c0-2.3-1-3.5-3.1-3.5c-2,0-3.4,1.7-3.4,3.6V33h-4.3V18.2h3.9l0.2,1.9c1.3-1.7,3-2.3,4.8-2.2
	c3.3,0,6.2,1.6,6.2,7.3V33H418.1z"/>
<path class="st0" d="M435.2,22.4c-1.1-0.8-2.2-1.1-3.5-1.1c-1.4,0-2.1,0.5-2.1,1.2c0,0.8,0.8,1.3,2.2,1.3c2.9,0.1,6.4,0.7,6.4,4.8
	c0,2.4-1.8,5-6.5,5c-2.2,0-4.4-0.4-7-2.5l1.9-3.1c1.8,1.5,3.6,1.8,5.2,1.9c1.3,0,2.2-0.5,2.2-1.3c0-0.7-0.5-1.3-2.5-1.3
	c-2.8-0.1-6.2-1.3-6.2-4.7c0-3.4,3.2-4.8,6.4-4.8c2.3,0,4.1,0.6,5.7,1.9L435.2,22.4z"/>
<rect x="148.4" y="44" class="st0" width="4.6" height="21"/>
<path class="st0" d="M167.7,65v-7.8c0-2.3-1-3.5-3.1-3.5c-2,0-3.4,1.7-3.4,3.6V65h-4.3V50.2h3.9l0.1,1.9c1.3-1.7,3-2.3,4.8-2.2
	c3.3,0,6.2,1.6,6.2,7.3V65H167.7z"/>
<path class="st0" d="M191.1,44v21h-3.9l-0.3-1.9c-1.4,1.8-3.1,2.2-4.9,2.2c-4.3,0-7.3-3.1-7.3-7.7c0-4.8,3-7.7,7.4-7.7
	c1.7,0,3.4,0.5,4.6,2.1v-8H191.1z M179,57.6c0,2.1,1.3,3.8,3.6,3.8c2,0,4-1,4-3.8c0-2.5-2-3.8-4-3.8C180.5,53.8,179,55.4,179,57.6"
	/>
<path class="st0" d="M198.9,50.2V58c0,2.3,1,3.4,3.1,3.4c2,0,3.4-1.7,3.4-3.6v-7.6h4.3V65h-3.9l-0.1-1.9c-1.3,1.8-3,2.3-4.8,2.3
	c-3.3,0-6.2-1.5-6.2-7.3v-7.9H198.9z"/>
<path class="st0" d="M221.9,54.4c-1.1-0.8-2.2-1.1-3.5-1.1c-1.4,0-2.1,0.5-2.1,1.2c0,0.8,0.8,1.3,2.2,1.3c2.9,0.1,6.4,0.7,6.5,4.8
	c0,2.4-1.8,5-6.5,5c-2.2,0-4.4-0.4-7-2.5l1.9-3.1c1.8,1.5,3.6,1.8,5.2,1.9c1.3,0,2.2-0.5,2.2-1.3c0-0.7-0.5-1.3-2.5-1.3
	c-2.8-0.1-6.2-1.3-6.2-4.7c0-3.4,3.2-4.8,6.4-4.8c2.3,0,4.1,0.6,5.7,1.9L221.9,54.4z"/>
<path class="st0" d="M232.8,46.1v4.1h3.8v3.6h-3.8v5.6c0,1.6,0.9,2,1.7,2c0.5,0,1.3-0.1,1.8-0.4l1,3.6c-1.1,0.4-1.9,0.6-3.1,0.7
	c-3.2,0.2-5.6-1.3-5.6-5.9v-5.6h-2.6v-3.6h2.6v-3.7L232.8,46.1z"/>
<path class="st0" d="M242.9,50.2l0.3,1.6c1-1.4,2.3-2,4-2c1.4,0,2.6,0.4,3.6,1.4l-1.8,3.4c-0.7-0.5-1.5-0.8-2.4-0.8
	c-1.9,0-3.5,1.2-3.5,3.4V65h-4.3V50.2H242.9z"/>
<polygon class="st0" points="268.3,50.2 259.2,71.7 254.5,71.7 257.6,64.6 251.4,50.2 256.2,50.2 259.9,59.5 263.6,50.2 "/>
<path class="st1" d="M158.5,97.5c-6.7,0-11.3-4.2-11.3-11c0-6.8,4.6-11,11.3-11c6.7,0,11.3,4.2,11.3,11
	C169.9,93.3,165.2,97.5,158.5,97.5 M158.5,79.7c-4,0-6.8,3-6.8,6.8c0,3.9,2.8,6.8,6.8,6.8c4.1,0,6.8-2.9,6.8-6.8
	C165.3,82.7,162.6,79.7,158.5,79.7"/>
<path class="st1" d="M182.2,97v-7.9c0-1.9-0.8-3.2-2.6-3.2c-1.7,0-2.7,1.6-2.7,3.3V97h-4.3V82.2h3.8l0.3,1.7c0.9-1.6,2.6-2,3.9-2
	c1.6,0,3.4,0.6,4.3,2.8c1.3-2,2.7-2.8,4.9-2.8c3.1,0,5.9,1.6,5.9,7.1V97h-4.3v-8c0-1.9-0.5-3.1-2.2-3.1c-1.7,0-2.7,1.5-2.7,3.2V97
	H182.2z"/>
<path class="st1" d="M203,76v8c1.3-1.6,2.9-2.1,4.6-2.1c4.4,0,7.4,2.9,7.4,7.7c0,4.6-3,7.7-7.3,7.7c-1.9,0-3.5-0.4-4.9-2.2l-0.3,1.9
	h-3.9V76H203z M203,89.6c0,2.8,2,3.8,4,3.8c2.3,0,3.6-1.7,3.6-3.8c0-2.2-1.4-3.8-3.6-3.8C205,85.8,203,87.1,203,89.6"/>
<path class="st1" d="M221.9,82.2V90c0,2.3,1,3.4,3.1,3.4c2,0,3.4-1.7,3.4-3.6v-7.6h4.3V97h-3.9l-0.2-1.9c-1.3,1.8-3,2.3-4.8,2.2
	c-3.3,0-6.2-1.5-6.2-7.3v-7.9H221.9z"/>
<path class="st1" d="M251.2,76v21h-3.9l-0.3-1.9c-1.4,1.8-3.1,2.2-4.9,2.2c-4.3,0-7.3-3.1-7.3-7.7c0-4.8,3-7.7,7.4-7.7
	c1.7,0,3.4,0.5,4.6,2.1v-8H251.2z M239.2,89.6c0,2.1,1.3,3.8,3.6,3.8c2,0,4-1,4-3.8c0-2.5-2-3.8-4-3.8
	C240.6,85.8,239.2,87.4,239.2,89.6"/>
<path class="st1" d="M264.2,86.4c-1.1-0.8-2.2-1.1-3.5-1.1c-1.4,0-2.1,0.5-2.1,1.2c0,0.8,0.8,1.3,2.2,1.3c2.9,0.1,6.4,0.7,6.4,4.8
	c0,2.4-1.8,5-6.5,5c-2.2,0-4.4-0.4-7-2.5l1.9-3.1c1.8,1.5,3.6,1.8,5.2,1.9c1.3,0,2.2-0.5,2.2-1.3c0-0.7-0.5-1.3-2.5-1.3
	c-2.8-0.1-6.2-1.3-6.2-4.7c0-3.4,3.2-4.8,6.4-4.8c2.3,0,4.1,0.6,5.7,1.9L264.2,86.4z"/>
<path class="st1" d="M279.3,97v-7.9c0-1.9-0.8-3.2-2.6-3.2c-1.7,0-2.7,1.6-2.7,3.3V97h-4.3V82.2h3.8l0.3,1.7c0.9-1.6,2.6-2,3.9-2
	c1.6,0,3.4,0.6,4.3,2.8c1.3-2,2.7-2.8,4.9-2.8c3.1,0,5.9,1.6,5.9,7.1V97h-4.4v-8c0-1.9-0.5-3.1-2.2-3.1c-1.7,0-2.7,1.5-2.7,3.2V97
	H279.3z"/>
<path class="st1" d="M307.8,82.2h4V97H308l-0.2-1.9c-1,1.6-3.1,2.2-4.6,2.2c-4.4,0-7.6-2.8-7.6-7.7c0-4.9,3.4-7.8,7.8-7.7
	c1.9,0,3.6,0.7,4.4,2L307.8,82.2z M299.9,89.6c0,2.5,1.7,3.9,3.9,3.9c2.4,0,3.9-1.9,3.9-3.8c0-2.1-1.4-4.1-3.9-4.1
	C301.6,85.7,299.9,87.1,299.9,89.6"/>
<path class="st1" d="M326.2,97v-7.8c0-2.3-1-3.4-3.1-3.4c-2,0-3.4,1.7-3.4,3.6V97h-4.3V82.2h3.9l0.2,1.9c1.3-1.7,3-2.3,4.8-2.2
	c3.3,0,6.2,1.6,6.2,7.3V97H326.2z"/>
<path class="st2" d="M24.2,55c0-1.6-1.3-2.9-2.9-2.9c-1.6,0-2.9,1.3-2.9,2.9c0,1.6,1.3,2.9,2.9,2.9C22.9,57.9,24.2,56.6,24.2,55"/>
<path class="st2" d="M1.3,57.3c1.3,0.7,2.9,0.3,3.6-1c0.7-1.3,0.3-2.9-1-3.6c-1.3-0.7-2.9-0.3-3.6,1C-0.4,55,0.1,56.6,1.3,57.3"/>
<path class="st2" d="M24.9,21.6c0-1.5-1.2-2.6-2.6-2.6c-1.5,0-2.6,1.2-2.6,2.6c0,1.5,1.2,2.6,2.6,2.6C23.7,24.2,24.9,23,24.9,21.6"
	/>
<path class="st2" d="M35.4,4.9c0-1.5-1.2-2.6-2.6-2.6c-1.5,0-2.6,1.2-2.6,2.6c0,1.5,1.2,2.6,2.6,2.6C34.3,7.5,35.4,6.3,35.4,4.9"/>
<path class="st2" d="M35.4,104.9c0-1.5-1.2-2.6-2.6-2.6c-1.5,0-2.6,1.2-2.6,2.6c0,1.5,1.2,2.6,2.6,2.6
	C34.3,107.5,35.4,106.4,35.4,104.9"/>
<path class="st2" d="M24.9,88.3c0-1.5-1.2-2.6-2.6-2.6c-1.5,0-2.6,1.2-2.6,2.6c0,1.5,1.2,2.6,2.6,2.6C23.7,90.9,24.9,89.7,24.9,88.3
	"/>
<path class="st2" d="M10.9,73.9c1.3,0.7,2.9,0.3,3.6-1c0.7-1.3,0.3-2.9-1-3.6c-1.3-0.7-2.9-0.3-3.6,1C9.2,71.6,9.6,73.2,10.9,73.9"
	/>
<path class="st2" d="M10.9,40.6c1.3,0.7,2.9,0.3,3.6-1c0.7-1.3,0.3-2.9-1-3.6c-1.3-0.7-2.9-0.3-3.6,1C9.2,38.3,9.6,39.9,10.9,40.6"
	/>
<path class="st3" d="M103.8,56.4c1.5-0.8,1.5-2.1,0-2.8l-5-2.6c-3.1-1.6-6.8,0.6-6.8,4.1c0,3.5,3.7,5.7,6.8,4.1L103.8,56.4z"/>
<path class="st3" d="M93.8,39.7c1.5-0.8,1.5-2.1,0-2.8l-5-2.6c-3.1-1.6-6.8,0.6-6.8,4.1c0,3.5,3.7,5.7,6.8,4.1L93.8,39.7z"/>
<path class="st3" d="M84.6,23c1.5-0.8,1.5-2.1,0-2.8l-5-2.6c-3.1-1.6-6.8,0.6-6.8,4.1c0,3.5,3.7,5.7,6.8,4.1L84.6,23z"/>
<path class="st3" d="M94.3,73c1.5-0.8,1.5-2.1,0-2.8l-5-2.6c-3.1-1.6-6.8,0.6-6.8,4.1c0,3.5,3.7,5.7,6.8,4.1L94.3,73z"/>
<path class="st3" d="M84.5,89.7c1.5-0.8,1.5-2.1,0-2.8l-5-2.6c-3.1-1.6-6.8,0.6-6.8,4.1c0,3.5,3.7,5.7,6.8,4.1L84.5,89.7z"/>
<path class="st1" d="M126.7,54.2l-7.7-3.6c-3.2-1.5-6.9,0.9-6.9,4.4s3.7,5.9,6.9,4.4l7.7-3.6C127.4,55.5,127.4,54.5,126.7,54.2"/>
<path class="st1" d="M116.8,37.5l-7.7-3.6c-3.2-1.5-6.9,0.9-6.9,4.4s3.7,5.9,6.9,4.4l7.7-3.6C117.5,38.8,117.5,37.8,116.8,37.5"/>
<path class="st1" d="M107.3,20.7l-7.7-3.6c-3.2-1.5-6.9,0.9-6.9,4.4s3.7,5.9,6.9,4.4l7.7-3.6C108,22.1,108,21.1,107.3,20.7"/>
<path class="st1" d="M117.3,70.8l-7.7-3.6c-3.2-1.5-6.9,0.9-6.9,4.4s3.7,5.9,6.9,4.4l7.7-3.6C118,72.1,118,71.1,117.3,70.8"/>
<path class="st1" d="M107.4,87.5l-7.7-3.6c-3.2-1.5-6.9,0.9-6.9,4.4c0,3.6,3.7,5.9,6.9,4.4l7.7-3.6
	C108.1,88.8,108.1,87.8,107.4,87.5"/>
<path class="st1" d="M96.2,4.1l-7.7-3.6c-3.2-1.5-6.9,0.9-6.9,4.4c0,3.6,3.7,5.9,6.9,4.4l7.7-3.6C96.9,5.4,96.9,4.4,96.2,4.1"/>
<path class="st1" d="M96.2,104.1l-7.7-3.6c-3.2-1.5-6.9,0.9-6.9,4.4c0,3.6,3.7,5.9,6.9,4.4l7.7-3.6
	C96.9,105.4,96.9,104.4,96.2,104.1"/>
<path class="st4" d="M73.5,6.3c1.5-0.8,1.5-2.1,0-2.8l-5-2.6c-3.1-1.6-6.8,0.6-6.8,4.1c0,3.5,3.7,5.7,6.8,4.1L73.5,6.3z"/>
<path class="st4" d="M73.5,106.3c1.5-0.8,1.5-2.1,0-2.8l-5-2.6c-3.1-1.6-6.8,0.6-6.8,4.1c0,3.5,3.7,5.7,6.8,4.1L73.5,106.3z"/>
<path class="st4" d="M62.5,86.3L60.1,85c-2.5-1.4-5.6,0.4-5.6,3.3c0,2.9,3.1,4.7,5.6,3.3l2.4-1.3C64.1,89.4,64.1,87.2,62.5,86.3"/>
<path class="st4" d="M72,69.6l-2.4-1.3c-2.5-1.4-5.6,0.4-5.6,3.3c0,2.9,3.1,4.7,5.6,3.3l2.4-1.3C73.6,72.7,73.6,70.5,72,69.6"/>
<path class="st4" d="M81.9,53l-2.4-1.3c-2.5-1.4-5.6,0.4-5.6,3.3s3.1,4.7,5.6,3.3l2.4-1.3C83.4,56.1,83.4,53.9,81.9,53"/>
<path class="st4" d="M71.8,36.3L69.4,35c-2.5-1.4-5.6,0.4-5.6,3.3s3.1,4.7,5.6,3.3l2.4-1.3C73.4,39.4,73.4,37.2,71.8,36.3"/>
<path class="st4" d="M62.4,19.6L60,18.3c-2.5-1.4-5.6,0.4-5.6,3.3s3.1,4.7,5.6,3.3l2.4-1.3C64,22.7,64,20.5,62.4,19.6"/>
<path class="st4" d="M51.3,40.3c1.9-1.1,1.9-2.9,0-4l-1-0.6c-2-1.1-4.4,0.3-4.4,2.6c0,2.3,2.5,3.7,4.4,2.6L51.3,40.3z"/>
<path class="st4" d="M61.7,57.2c2.1-1.2,2.1-3.2,0-4.4l-1.1-0.6c-2.2-1.3-4.9,0.3-4.9,2.9s2.7,4.1,4.9,2.9L61.7,57.2z"/>
<path class="st4" d="M51.6,73.6c1.9-1.1,1.9-2.9,0-4l-1-0.6c-2-1.1-4.4,0.3-4.4,2.6c0,2.3,2.5,3.7,4.4,2.6L51.6,73.6z"/>
<path class="st5" d="M43.4,55c0-1.6-1.3-2.9-2.9-2.9c-1.6,0-2.9,1.3-2.9,2.9c0,1.6,1.3,2.9,2.9,2.9C42.1,57.9,43.4,56.6,43.4,55"/>
<path class="st5" d="M33.7,71.6c0-1.6-1.3-2.9-2.9-2.9c-1.6,0-2.9,1.3-2.9,2.9c0,1.6,1.3,2.9,2.9,2.9C32.4,74.5,33.7,73.2,33.7,71.6
	"/>
<path class="st5" d="M33.7,38.3c0-1.6-1.3-2.9-2.9-2.9c-1.6,0-2.9,1.3-2.9,2.9c0,1.6,1.3,2.9,2.9,2.9C32.4,41.2,33.7,39.9,33.7,38.3
	"/>
<path class="st5" d="M52.6,102.9l-2.4-1.3c-2.5-1.4-5.6,0.4-5.6,3.3c0,2.9,3.1,4.7,5.6,3.3l2.4-1.3C54.2,106,54.2,103.8,52.6,102.9"
	/>
<path class="st5" d="M42.2,23.6c1.9-1.1,1.9-2.9,0-4l-1-0.6c-2-1.1-4.4,0.3-4.4,2.6c0,2.3,2.5,3.7,4.4,2.6L42.2,23.6z"/>
<path class="st5" d="M42.6,90.3c1.9-1.1,1.9-2.9,0-4l-1-0.6c-2-1.1-4.4,0.3-4.4,2.6c0,2.3,2.5,3.7,4.4,2.6L42.6,90.3z"/>
<path class="st5" d="M52.9,2.9l-2.4-1.3c-2.5-1.4-5.6,0.4-5.6,3.3s3.1,4.7,5.6,3.3l2.4-1.3C54.4,6,54.4,3.8,52.9,2.9"/>
</svg>
